  0
SECTION
  2
HEADER
  9
$ACADVER
  1
AC1014
  9
$HANDSEED
  5
FFFF
  9
$MEASUREMENT
 70
     1
  0
ENDSEC
  0
SECTION
  2
TABLES
  0
TABLE
  2
VPORT
  5
8
330
0
100
AcDbSymbolTable
 70
     4
  0
VPORT
  5
2E
330
8
100
AcDbSymbolTableRecord
100
AcDbViewportTableRecord
  2
*ACTIVE
 70
     0
 10
0.0
 20
0.0
 11
1.0
 21
1.0
 12
210.0
 22
148.5
 13
0.0
 23
0.0
 14
10.0
 24
10.0
 15
10.0
 25
10.0
 16
0.0
 26
0.0
 36
1.0
 17
0.0
 27
0.0
 37
0.0
 40
341.0
 41
1.24
 42
50.0
 43
0.0
 44
0.0
 50
0.0
 51
0.0
 71
     0
 72
   100
 73
     1
 74
     3
 75
     0
 76
     0
 77
     0
 78
     0
  0
ENDTAB
  0
TABLE
  2
LTYPE
  5
5
330
0
100
AcDbSymbolTable
 70
     1
  0
LTYPE
  5
14
330
5
100
AcDbSymbolTableRecord
100
AcDbLinetypeTableRecord
  2
BYBLOCK
 70
     0
  3

 72
    65
 73
     0
 40
0.0
  0
LTYPE
  5
15
330
5
100
AcDbSymbolTableRecord
100
AcDbLinetypeTableRecord
  2
BYLAYER
 70
     0
  3

 72
    65
 73
     0
 40
0.0
  0
LTYPE
  5
16
330
5
100
AcDbSymbolTableRecord
100
AcDbLinetypeTableRecord
  2
CONTINUOUS
 70
     0
  3
Solid line
 72
    65
 73
     0
 40
0.0
  0
ENDTAB
  0
TABLE
  2
LAYER
  5
2
100
AcDbSymbolTable
 70
2
  0
LAYER
  5
50
100
AcDbSymbolTableRecord
100
AcDbLayerTableRecord
  2
0
 70
0
  6
CONTINUOUS
  0
LAYER
  5
51
100
AcDbSymbolTableRecord
100
AcDbLayerTableRecord
  2
Image
 70
0
  6
CONTINUOUS
  0
ENDTAB
  0
TABLE
  2
STYLE
  5
3
330
0
100
AcDbSymbolTable
 70
     1
  0
STYLE
  5
11
330
3
100
AcDbSymbolTableRecord
100
AcDbTextStyleTableRecord
  2
STANDARD
 70
     0
 40
0.0
 41
1.0
 50
0.0
 71
     0
 42
2.5
  3
txt
  4

  0
ENDTAB
  0
TABLE
  2
VIEW
  5
6
330
0
100
AcDbSymbolTable
 70
     0
  0
ENDTAB
  0
TABLE
  2
UCS
  5
7
330
0
100
AcDbSymbolTable
 70
     0
  0
ENDTAB
  0
TABLE
  2
APPID
  5
9
330
0
100
AcDbSymbolTable
 70
     2
  0
APPID
  5
12
330
9
100
AcDbSymbolTableRecord
100
AcDbRegAppTableRecord
  2
ACAD
 70
     0
  0
ENDTAB
  0
TABLE
  2
DIMSTYLE
  5
A
330
0
100
AcDbSymbolTable
 70
     1
  0
DIMSTYLE
105
27
330
A
100
AcDbSymbolTableRecord
100
AcDbDimStyleTableRecord
  2
ISO-25
 70
     0
  3

  4

  5

  6

  7

 40
1.0
 41
2.5
 42
0.625
 43
3.75
 44
1.25
 45
0.0
 46
0.0
 47
0.0
 48
0.0
140
2.5
141
2.5
142
0.0
143
0.03937007874016
144
1.0
145
0.0
146
1.0
147
0.625
 71
     0
 72
     0
 73
     0
 74
     0
 75
     0
 76
     0
 77
     1
 78
     8
170
     0
171
     3
172
     1
173
     0
174
     0
175
     0
176
     0
177
     0
178
     0
270
     2
271
     2
272
     2
273
     2
274
     3
340
11
275
     0
280
     0
281
     0
282
     0
283
     0
284
     8
285
     0
286
     0
287
     3
288
     0
  0
ENDTAB
  0
TABLE
  2
BLOCK_RECORD
  5
1
330
0
100
AcDbSymbolTable
 70
     1
  0
BLOCK_RECORD
  5
1F
330
1
100
AcDbSymbolTableRecord
100
AcDbBlockTableRecord
  2
*MODEL_SPACE
  0
BLOCK_RECORD
  5
1B
330
1
100
AcDbSymbolTableRecord
100
AcDbBlockTableRecord
  2
*PAPER_SPACE
  0
ENDTAB
  0
ENDSEC
  0
SECTION
  2
BLOCKS
  0
BLOCK
  5
20
330
1F
100
AcDbEntity
  8
0
100
AcDbBlockBegin
  2
*MODEL_SPACE
 70
     0
 10
0.0
 20
0.0
 30
0.0
  3
*MODEL_SPACE
  1

  0
ENDBLK
  5
21
330
1F
100
AcDbEntity
  8
0
100
AcDbBlockEnd
  0
BLOCK
  5
1C
330
1B
100
AcDbEntity
 67
     1
  8
0
100
AcDbBlockBegin
  2
*PAPER_SPACE
  1

  0
ENDBLK
  5
1D
330
1B
100
AcDbEntity
 67
     1
  8
0
100
AcDbBlockEnd
  0
ENDSEC
  0
SECTION
  2
ENTITIES
  0
LWPOLYLINE
  5
100
100
AcDbEntity
  8
Image
 62
7
100
AcDbPolyline
 90
507
 70
1
 10
55.824709
 20
0.097904
 30
0.0
 10
55.059270
 20
0.207706
 30
0.0
 10
54.854217
 20
0.294754
 30
0.0
 10
54.724307
 20
0.415933
 30
0.0
 10
54.598630
 20
0.621514
 30
0.0
 10
54.546242
 20
0.773121
 30
0.0
 10
54.463163
 20
0.922081
 30
0.0
 10
54.263138
 20
1.122106
 30
0.0
 10
54.076607
 20
1.239052
 30
0.0
 10
53.822871
 20
1.311812
 30
0.0
 10
52.906619
 20
1.362083
 30
0.0
 10
51.746421
 20
1.441987
 30
0.0
 10
51.224927
 20
1.532739
 30
0.0
 10
50.758202
 20
1.652331
 30
0.0
 10
50.358417
 20
1.797323
 30
0.0
 10
50.037477
 20
1.964010
 30
0.0
 10
49.807025
 20
2.148954
 30
0.0
 10
49.679231
 20
2.348185
 30
0.0
 10
49.451425
 20
2.749558
 30
0.0
 10
49.320721
 20
2.979746
 30
0.0
 10
49.220708
 20
3.267877
 30
0.0
 10
49.164352
 20
3.423188
 30
0.0
 10
49.075717
 20
3.538546
 30
0.0
 10
48.947923
 20
3.619244
 30
0.0
 10
48.775150
 20
3.671102
 30
0.0
 10
48.508185
 20
3.779052
 30
0.0
 10
48.317156
 20
3.996540
 30
0.0
 10
48.202062
 20
4.347377
 30
0.0
 10
48.163169
 20
4.854848
 30
0.0
 10
48.200210
 20
5.542765
 30
0.0
 10
48.313187
 20
6.434940
 30
0.0
 10
48.766948
 20
8.925728
 30
0.0
 10
49.051375
 20
10.393901
 30
0.0
 10
49.205098
 20
11.504357
 30
0.0
 10
49.277065
 20
12.771447
 30
0.0
 10
49.316223
 20
14.710049
 30
0.0
 10
49.381046
 20
17.344771
 30
0.0
 10
49.462538
 20
19.020906
 30
0.0
 10
49.555671
 20
20.014681
 30
0.0
 10
49.040527
 20
19.932396
 30
0.0
 10
47.224956
 20
19.679454
 30
0.0
 10
45.289793
 20
19.520969
 30
0.0
 10
42.677033
 20
19.426248
 30
0.0
 10
38.828403
 20
19.363542
 30
0.0
 10
33.855294
 20
19.334437
 30
0.0
 10
30.992237
 20
19.374919
 30
0.0
 10
30.039473
 20
19.468052
 30
0.0
 10
29.077977
 20
19.621510
 30
0.0
 10
28.111189
 20
19.834235
 30
0.0
 10
27.143608
 20
20.104640
 30
0.0
 10
26.178646
 20
20.431929
 30
0.0
 10
25.220245
 20
20.814517
 30
0.0
 10
24.272243
 20
21.251344
 30
0.0
 10
23.338528
 20
21.741352
 30
0.0
 10
22.311442
 20
22.271048
 30
0.0
 10
21.729068
 20
22.491182
 30
0.0
 10
21.430724
 20
22.440911
 30
0.0
 10
21.101767
 20
22.287452
 30
0.0
 10
20.738124
 20
22.026573
 30
0.0
 10
20.335587
 20
21.654040
 30
0.0
 10
19.890108
 20
21.165884
 30
0.0
 10
19.397480
 20
20.557342
 30
0.0
 10
18.254347
 20
18.964021
 30
0.0
 10
17.135821
 20
17.221210
 30
0.0
 10
16.754027
 20
16.517683
 30
0.0
 10
16.472299
 20
15.878714
 30
0.0
 10
16.276957
 20
15.268320
 30
0.0
 10
16.154296
 20
14.650518
 30
0.0
 10
16.090664
 20
13.989324
 30
0.0
 10
16.072328
 20
13.249020
 30
0.0
 10
16.177341
 20
11.744599
 30
0.0
 10
16.428643
 20
9.720801
 30
0.0
 10
16.730030
 20
7.855224
 30
0.0
 10
16.869439
 20
7.193501
 30
0.0
 10
16.985300
 20
6.824936
 30
0.0
 10
17.197257
 20
6.489709
 30
0.0
 10
17.518382
 20
6.163477
 30
0.0
 10
18.046570
 20
5.762105
 30
0.0
 10
18.879743
 20
5.201452
 30
0.0
 10
19.788375
 20
4.545021
 30
0.0
 10
19.981759
 20
4.330444
 30
0.0
 10
20.044651
 20
4.152908
 30
0.0
 10
20.106352
 20
3.974579
 30
0.0
 10
20.269811
 20
3.721902
 30
0.0
 10
20.853509
 20
3.057533
 30
0.0
 10
21.410245
 20
2.437350
 30
0.0
 10
21.499806
 20
2.272514
 30
0.0
 10
21.467421
 20
2.198696
 30
0.0
 10
21.066498
 20
2.110325
 30
0.0
 10
20.541036
 20
2.085719
 30
0.0
 10
19.780491
 20
2.126464
 30
0.0
 10
18.674294
 20
2.233885
 30
0.0
 10
16.760510
 20
2.439202
 30
0.0
 10
16.718388
 20
2.807237
 30
0.0
 10
16.590753
 20
3.199350
 30
0.0
 10
16.326302
 20
3.673748
 30
0.0
 10
15.994435
 20
4.123011
 30
0.0
 10
15.664632
 20
4.439188
 30
0.0
 10
15.503871
 20
4.534702
 30
0.0
 10
15.383935
 20
4.521473
 30
0.0
 10
15.255586
 20
4.366956
 30
0.0
 10
15.069557
 20
4.037286
 30
0.0
 10
14.805979
 20
3.617127
 30
0.0
 10
14.622888
 20
3.441973
 30
0.0
 10
14.571691
 20
3.486423
 30
0.0
 10
14.525230
 20
3.607602
 30
0.0
 10
14.466969
 20
4.006858
 30
0.0
 10
14.240644
 20
6.812500
 30
0.0
 10
14.083799
 20
8.158701
 30
0.0
 10
13.917508
 20
9.278417
 30
0.0
 10
13.316243
 20
12.203916
 30
0.0
 10
13.004775
 20
13.506989
 30
0.0
 10
12.808216
 20
14.165801
 30
0.0
 10
12.720269
 20
14.204960
 30
0.0
 10
12.567234
 20
14.148339
 30
0.0
 10
12.135248
 20
13.812318
 30
0.0
 10
11.650743
 20
13.288178
 30
0.0
 10
11.252307
 20
12.705830
 30
0.0
 10
10.909222
 20
11.911551
 30
0.0
 10
10.640617
 20
10.960374
 30
0.0
 10
10.450011
 20
9.908655
 30
0.0
 10
10.340870
 20
8.813544
 30
0.0
 10
10.316661
 20
7.731928
 30
0.0
 10
10.380902
 20
6.720690
 30
0.0
 10
10.537086
 20
5.836717
 30
0.0
 10
10.650724
 20
5.460215
 30
0.0
 10
10.788625
 20
5.136894
 30
0.0
 10
11.012462
 20
4.791877
 30
0.0
 10
11.356421
 20
4.409025
 30
0.0
 10
11.836031
 20
3.972463
 30
0.0
 10
12.466824
 20
3.467108
 30
0.0
 10
12.790674
 20
3.162573
 30
0.0
 10
12.925374
 20
2.923390
 30
0.0
 10
12.980883
 20
2.790569
 30
0.0
 10
13.132066
 20
2.570700
 30
0.0
 10
13.628980
 20
1.993114
 30
0.0
 10
14.102585
 20
1.434579
 30
0.0
 10
14.228473
 20
1.235083
 30
0.0
 10
14.253159
 20
1.127133
 30
0.0
 10
14.160740
 20
1.035323
 30
0.0
 10
14.006091
 20
0.959387
 30
0.0
 10
13.505579
 20
0.854348
 30
0.0
 10
12.742891
 20
0.811485
 30
0.0
 10
11.709243
 20
0.829212
 30
0.0
 10
10.630034
 20
0.898533
 30
0.0
 10
10.269592
 20
0.953037
 30
0.0
 10
10.008527
 20
1.029237
 30
0.0
 10
9.831706
 20
1.133218
 30
0.0
 10
9.724074
 20
1.271066
 30
0.0
 10
9.670549
 20
1.449131
 30
0.0
 10
9.656076
 20
1.673498
 30
0.0
 10
9.630676
 20
1.888869
 30
0.0
 10
9.540559
 20
2.084925
 30
0.0
 10
9.364717
 20
2.293681
 30
0.0
 10
9.082168
 20
2.547417
 30
0.0
 10
8.757842
 20
2.809883
 30
0.0
 10
8.564431
 20
2.925242
 30
0.0
 10
8.441268
 20
2.913335
 30
0.0
 10
8.327709
 20
2.794008
 30
0.0
 10
8.222986
 20
2.668596
 30
0.0
 10
8.148242
 20
2.625733
 30
0.0
 10
8.074846
 20
2.664362
 30
0.0
 10
7.974199
 20
2.783690
 30
0.0
 10
7.812062
 20
3.114948
 30
0.0
 10
7.721072
 20
3.566592
 30
0.0
 10
7.707472
 20
4.081471
 30
0.0
 10
7.777428
 20
4.601906
 30
0.0
 10
7.832409
 20
5.125517
 30
0.0
 10
7.867810
 20
6.098390
 30
0.0
 10
7.876409
 20
9.225236
 30
0.0
 10
7.883182
 20
12.519299
 30
0.0
 10
7.929722
 20
13.330776
 30
0.0
 10
8.010605
 20
13.773953
 30
0.0
 10
8.141759
 20
14.055470
 30
0.0
 10
8.372767
 20
14.433560
 30
0.0
 10
9.003825
 20
15.282872
 30
0.0
 10
9.589612
 20
16.016562
 30
0.0
 10
10.132855
 20
16.762952
 30
0.0
 10
10.628049
 20
17.512516
 30
0.0
 10
11.069692
 20
18.255202
 30
0.0
 10
11.452306
 20
18.981483
 30
0.0
 10
11.770388
 20
19.681306
 30
0.0
 10
12.018435
 20
20.345146
 30
0.0
 10
12.190970
 20
20.962684
 30
0.0
 10
12.269048
 20
21.608796
 30
0.0
 10
12.248490
 20
21.966513
 30
0.0
 10
12.180995
 20
22.382438
 30
0.0
 10
11.883550
 20
23.495805
 30
0.0
 10
11.333455
 20
25.160299
 30
0.0
 10
10.590293
 20
27.399203
 30
0.0
 10
10.100153
 20
29.084599
 30
0.0
 10
9.816149
 20
30.397462
 30
0.0
 10
9.691530
 20
31.519031
 30
0.0
 10
9.619352
 20
32.813902
 30
0.0
 10
9.291903
 20
32.508043
 30
0.0
 10
8.935642
 20
32.228643
 30
0.0
 10
8.538873
 20
31.987079
 30
0.0
 10
8.113264
 20
31.771972
 30
0.0
 10
8.172451
 20
32.081800
 30
0.0
 10
8.231638
 20
32.391362
 30
0.0
 10
7.654979
 20
32.102172
 30
0.0
 10
7.122293
 20
31.873043
 30
0.0
 10
6.651335
 20
31.727787
 30
0.0
 10
6.419930
 20
31.688364
 30
0.0
 10
6.300868
 20
31.697889
 30
0.0
 10
6.268377
 20
31.770120
 30
0.0
 10
6.296767
 20
31.919345
 30
0.0
 10
6.324601
 20
32.061956
 30
0.0
 10
6.304043
 20
32.135245
 30
0.0
 10
6.221572
 20
32.150591
 30
0.0
 10
6.063536
 20
32.119370
 30
0.0
 10
5.126832
 20
31.960091
 30
0.0
 10
4.769142
 20
31.940777
 30
0.0
 10
4.626372
 20
31.975966
 30
0.0
 10
4.739879
 20
32.276004
 30
0.0
 10
4.780386
 20
32.386864
 30
0.0
 10
4.730380
 20
32.444808
 30
0.0
 10
4.233995
 20
32.444014
 30
0.0
 10
3.740706
 20
32.434489
 30
0.0
 10
3.424503
 20
32.473118
 30
0.0
 10
3.329173
 20
32.521008
 30
0.0
 10
3.297476
 20
32.582127
 30
0.0
 10
3.425164
 20
32.837185
 30
0.0
 10
3.526579
 20
33.002550
 30
0.0
 10
3.535654
 20
33.083512
 30
0.0
 10
3.431858
 20
33.102033
 30
0.0
 10
3.194685
 20
33.079014
 30
0.0
 10
2.782015
 20
33.103091
 30
0.0
 10
2.381769
 20
33.232473
 30
0.0
 10
1.936102
 20
33.398631
 30
0.0
 10
1.414608
 20
33.513725
 30
0.0
 10
1.107403
 20
33.542564
 30
0.0
 10
0.874160
 20
33.523779
 30
0.0
 10
0.669999
 20
33.447843
 30
0.0
 10
0.450043
 20
33.304968
 30
0.0
 10
0.060968
 20
33.017366
 30
0.0
 10
0.145620
 20
33.440700
 30
0.0
 10
0.323374
 20
33.861387
 30
0.0
 10
0.631867
 20
34.278371
 30
0.0
 10
1.033460
 20
34.692708
 30
0.0
 10
0.606380
 20
34.607248
 30
0.0
 10
0.179298
 20
34.521787
 30
0.0
 10
0.473668
 20
34.935067
 30
0.0
 10
0.784217
 20
35.277967
 30
0.0
 10
1.164339
 20
35.535062
 30
0.0
 10
1.610183
 20
35.706221
 30
0.0
 10
2.117900
 20
35.791153
 30
0.0
 10
2.683643
 20
35.789539
 30
0.0
 10
3.303561
 20
35.701088
 30
0.0
 10
3.973831
 20
35.525617
 30
0.0
 10
4.690587
 20
35.262621
 30
0.0
 10
5.875841
 20
34.778433
 30
0.0
 10
6.590190
 20
34.530783
 30
0.0
 10
7.084908
 20
34.451408
 30
0.0
 10
7.611428
 20
34.472310
 30
0.0
 10
7.993725
 20
34.522052
 30
0.0
 10
8.394066
 20
34.618096
 30
0.0
 10
8.832481
 20
34.770231
 30
0.0
 10
9.328998
 20
34.987983
 30
0.0
 10
10.576429
 20
35.658570
 30
0.0
 10
12.296644
 20
36.706293
 30
0.0
 10
13.705736
 20
37.572328
 30
0.0
 10
14.934488
 20
38.283713
 30
0.0
 10
16.015496
 20
38.854022
 30
0.0
 10
16.981304
 20
39.296856
 30
0.0
 10
17.864537
 20
39.625812
 30
0.0
 10
18.697710
 20
39.854439
 30
0.0
 10
19.513394
 20
39.996388
 30
0.0
 10
20.344186
 20
40.065206
 30
0.0
 10
21.071631
 20
40.080763
 30
0.0
 10
21.712875
 20
40.049357
 30
0.0
 10
22.392775
 20
39.959531
 30
0.0
 10
23.236267
 20
39.799882
 30
0.0
 10
24.780772
 20
39.521249
 30
0.0
 10
26.284453
 20
39.340962
 30
0.0
 10
27.918572
 20
39.243886
 30
0.0
 10
29.854529
 20
39.214914
 30
0.0
 10
31.617977
 20
39.249892
 30
0.0
 10
33.357877
 20
39.353688
 30
0.0
 10
35.063911
 20
39.524556
 30
0.0
 10
36.725230
 20
39.760723
 30
0.0
 10
38.330986
 20
40.060417
 30
0.0
 10
39.870861
 20
40.421917
 30
0.0
 10
41.333743
 20
40.843451
 30
0.0
 10
42.709312
 20
41.323273
 30
0.0
 10
43.592491
 20
41.699114
 30
0.0
 10
43.703881
 20
41.796057
 30
0.0
 10
43.627945
 20
41.850932
 30
0.0
 10
43.548306
 20
41.901811
 30
0.0
 10
43.642233
 20
41.985499
 30
0.0
 10
44.429633
 20
42.294268
 30
0.0
 10
45.149564
 20
42.558983
 30
0.0
 10
45.508075
 20
42.734296
 30
0.0
 10
45.557816
 20
42.792743
 30
0.0
 10
45.524479
 20
42.834071
 30
0.0
 10
45.217297
 20
42.872250
 30
0.0
 10
44.801108
 20
42.883072
 30
0.0
 10
45.178404
 20
43.000070
 30
0.0
 10
46.498675
 20
43.290556
 30
0.0
 10
47.225750
 20
43.450947
 30
0.0
 10
47.252473
 20
43.476744
 30
0.0
 10
47.226279
 20
43.501297
 30
0.0
 10
47.033133
 20
43.555695
 30
0.0
 10
46.744473
 20
43.648776
 30
0.0
 10
46.624352
 20
43.743920
 30
0.0
 10
46.646841
 20
43.809299
 30
0.0
 10
46.719602
 20
43.866660
 30
0.0
 10
47.046098
 20
43.962942
 30
0.0
 10
47.664694
 20
44.044301
 30
0.0
 10
48.636244
 20
44.122142
 30
0.0
 10
49.889840
 20
44.217154
 30
0.0
 10
50.829640
 20
44.326109
 30
0.0
 10
51.773144
 20
44.495945
 30
0.0
 10
53.037323
 20
44.773520
 30
0.0
 10
53.966276
 20
44.991245
 30
0.0
 10
54.704992
 20
45.195239
 30
0.0
 10
55.309565
 20
45.421352
 30
0.0
 10
55.835822
 20
45.705515
 30
0.0
 10
56.339324
 20
46.083578
 30
0.0
 10
56.875634
 20
46.591419
 30
0.0
 10
58.271047
 20
48.139920
 30
0.0
 10
59.687097
 20
49.705671
 30
0.0
 10
60.913706
 20
50.935613
 30
0.0
 10
61.954577
 20
51.833504
 30
0.0
 10
62.406485
 20
52.159073
 30
0.0
 10
62.813679
 20
52.403046
 30
0.0
 10
63.013439
 20
52.544862
 30
0.0
 10
63.096783
 20
52.675990
 30
0.0
 10
62.909723
 20
53.094878
 30
0.0
 10
62.460195
 20
53.928633
 30
0.0
 10
61.989766
 20
54.718203
 30
0.0
 10
61.477533
 20
55.494279
 30
0.0
 10
60.928522
 20
56.250855
 30
0.0
 10
60.347497
 20
56.981952
 30
0.0
 10
59.739485
 20
57.681590
 30
0.0
 10
59.109776
 20
58.343736
 30
0.0
 10
58.462870
 20
58.962438
 30
0.0
 10
57.804057
 20
59.531713
 30
0.0
 10
57.202659
 20
60.055331
 30
0.0
 10
56.987024
 20
60.307717
 30
0.0
 10
57.118522
 20
60.282497
 30
0.0
 10
57.410622
 20
60.145911
 30
0.0
 10
58.321318
 20
59.631331
 30
0.0
 10
59.409814
 20
58.949341
 30
0.0
 10
60.366547
 20
58.285342
 30
0.0
 10
61.341537
 20
57.491116
 30
0.0
 10
62.326052
 20
56.579997
 30
0.0
 10
63.258973
 20
55.611886
 30
0.0
 10
64.078917
 20
54.646633
 30
0.0
 10
64.933521
 20
53.640687
 30
0.0
 10
65.039619
 20
53.778720
 30
0.0
 10
65.176673
 20
54.150222
 30
0.0
 10
65.248904
 20
54.443380
 30
0.0
 10
65.272188
 20
54.698994
 30
0.0
 10
65.246523
 20
54.963128
 30
0.0
 10
65.171117
 20
55.281898
 30
0.0
 10
64.704127
 20
56.678131
 30
0.0
 10
64.082356
 20
58.098256
 30
0.0
 10
63.350783
 20
59.449737
 30
0.0
 10
62.554916
 20
60.639949
 30
0.0
 10
61.641575
 20
61.873683
 30
0.0
 10
61.607443
 20
61.944962
 30
0.0
 10
61.629139
 20
61.956535
 30
0.0
 10
61.797679
 20
61.870870
 30
0.0
 10
62.403310
 20
61.404172
 30
0.0
 10
63.268233
 20
60.580524
 30
0.0
 10
64.179723
 20
59.614048
 30
0.0
 10
64.925583
 20
58.718862
 30
0.0
 10
65.668004
 20
57.617799
 30
0.0
 10
66.379733
 20
56.357826
 30
0.0
 10
66.992509
 20
55.070893
 30
0.0
 10
67.437802
 20
53.889052
 30
0.0
 10
67.768267
 20
52.829184
 30
0.0
 10
68.501692
 20
52.607066
 30
0.0
 10
69.107059
 20
52.472102
 30
0.0
 10
69.532509
 20
52.459534
 30
0.0
 10
70.015903
 20
52.716789
 30
0.0
 10
70.760705
 20
53.230477
 30
0.0
 10
71.546253
 20
53.751336
 30
0.0
 10
71.833061
 20
53.882755
 30
0.0
 10
72.046580
 20
53.926808
 30
0.0
 10
72.246870
 20
53.913764
 30
0.0
 10
72.352703
 20
53.838569
 30
0.0
 10
72.394507
 20
53.647090
 30
0.0
 10
72.401651
 20
53.285193
 30
0.0
 10
72.296082
 20
52.506921
 30
0.0
 10
72.021974
 20
51.510421
 30
0.0
 10
71.837824
 20
50.922702
 30
0.0
 10
71.732784
 20
50.474736
 30
0.0
 10
71.695743
 20
50.099874
 30
0.0
 10
71.715057
 20
49.731468
 30
0.0
 10
71.804751
 20
49.068502
 30
0.0
 10
71.928311
 20
48.627864
 30
0.0
 10
72.146063
 20
48.267661
 30
0.0
 10
72.519126
 20
47.846021
 30
0.0
 10
72.927378
 20
47.378581
 30
0.0
 10
73.443580
 20
46.706116
 30
0.0
 10
75.261268
 20
44.118888
 30
0.0
 10
75.479285
 20
43.693305
 30
0.0
 10
75.512358
 20
43.498942
 30
0.0
 10
75.499128
 20
43.301537
 30
0.0
 10
75.224491
 20
41.963353
 30
0.0
 10
75.105958
 20
41.673926
 30
0.0
 10
74.964670
 20
41.521023
 30
0.0
 10
74.306916
 20
40.961138
 30
0.0
 10
74.068791
 20
40.757144
 30
0.0
 10
73.870618
 20
40.647713
 30
0.0
 10
73.657628
 20
40.613846
 30
0.0
 10
73.375847
 20
40.636679
 30
0.0
 10
72.911503
 20
40.762092
 30
0.0
 10
72.510924
 20
40.967620
 30
0.0
 10
72.155853
 20
41.230166
 30
0.0
 10
72.076743
 20
40.915815
 30
0.0
 10
72.061926
 20
40.459435
 30
0.0
 10
72.136803
 20
39.803586
 30
0.0
 10
72.234963
 20
39.046983
 30
0.0
 10
72.275974
 20
38.348324
 30
0.0
 10
72.260363
 20
37.968436
 30
0.0
 10
72.181253
 20
37.687633
 30
0.0
 10
71.988372
 20
37.402809
 30
0.0
 10
71.632772
 20
37.010961
 30
0.0
 10
71.099372
 20
36.528097
 30
0.0
 10
70.497974
 20
36.106218
 30
0.0
 10
69.929913
 20
35.807504
 30
0.0
 10
69.689671
 20
35.723763
 30
0.0
 10
69.495732
 20
35.694130
 30
0.0
 10
69.388840
 20
35.706883
 30
0.0
 10
69.342538
 20
35.757736
 30
0.0
 10
69.413976
 20
36.049174
 30
0.0
 10
69.473771
 20
36.253247
 30
0.0
 10
69.493086
 20
36.451156
 30
0.0
 10
69.468215
 20
36.650413
 30
0.0
 10
69.395719
 20
36.858535
 30
0.0
 10
69.094888
 20
37.331372
 30
0.0
 10
68.563075
 20
37.929753
 30
0.0
 10
67.914317
 20
38.683155
 30
0.0
 10
67.497598
 20
39.307862
 30
0.0
 10
67.385415
 20
39.596549
 30
0.0
 10
67.305511
 20
39.910398
 30
0.0
 10
67.243069
 20
40.570190
 30
0.0
 10
67.310273
 20
41.200665
 30
0.0
 10
67.392294
 20
41.477816
 30
0.0
 10
67.506594
 20
41.715201
 30
0.0
 10
67.765886
 20
42.140730
 30
0.0
 10
67.474579
 20
42.062704
 30
0.0
 10
66.929009
 20
41.982959
 30
0.0
 10
66.772640
 20
41.930439
 30
0.0
 10
66.549331
 20
41.789337
 30
0.0
 10
65.996881
 20
41.330338
 30
0.0
 10
65.464275
 20
40.784079
 30
0.0
 10
65.143335
 20
40.328704
 30
0.0
 10
64.926377
 20
39.545247
 30
0.0
 10
64.605702
 20
38.128191
 30
0.0
 10
64.203535
 20
36.406441
 30
0.0
 10
63.778614
 20
35.058098
 30
0.0
 10
63.240981
 20
33.845248
 30
0.0
 10
62.501735
 20
32.530533
 30
0.0
 10
61.459541
 20
30.749887
 30
0.0
 10
60.835654
 20
29.496291
 30
0.0
 10
60.635629
 20
28.959716
 30
0.0
 10
60.486668
 20
28.426580
 30
0.0
 10
60.269181
 20
27.198649
 30
0.0
 10
60.066245
 20
26.104597
 30
0.0
 10
59.829178
 20
25.262428
 30
0.0
 10
59.633916
 20
24.823219
 30
0.0
 10
59.400553
 20
24.398299
 30
0.0
 10
58.830641
 20
23.603226
 30
0.0
 10
58.140078
 20
22.902080
 30
0.0
 10
57.755903
 20
22.594105
 30
0.0
 10
57.349239
 20
22.318938
 30
0.0
 10
56.939134
 20
22.019430
 30
0.0
 10
56.695718
 20
21.758815
 30
0.0
 10
56.531676
 20
21.154242
 30
0.0
 10
56.312601
 20
20.028175
 30
0.0
 10
56.035318
 20
18.674831
 30
0.0
 10
55.731311
 20
17.524423
 30
0.0
 10
55.563830
 20
16.925671
 30
0.0
 10
55.447943
 20
16.279823
 30
0.0
 10
55.364070
 20
15.438712
 30
0.0
 10
55.292632
 20
14.254966
 30
0.0
 10
55.150551
 20
12.268739
 30
0.0
 10
54.971163
 20
10.671449
 30
0.0
 10
54.865330
 20
9.705190
 30
0.0
 10
54.819028
 20
8.610609
 30
0.0
 10
54.826965
 20
7.457026
 30
0.0
 10
54.884380
 20
6.313761
 30
0.0
 10
54.985980
 20
5.250665
 30
0.0
 10
55.126738
 20
4.336529
 30
0.0
 10
55.301892
 20
3.640940
 30
0.0
 10
55.400847
 20
3.396729
 30
0.0
 10
55.506415
 20
3.233481
 30
0.0
 10
55.908582
 20
2.993240
 30
0.0
 10
56.578243
 20
2.743473
 30
0.0
 10
57.040734
 20
2.593190
 30
0.0
 10
57.333893
 20
2.451902
 30
0.0
 10
57.524393
 20
2.275954
 30
0.0
 10
57.679439
 20
2.021160
 30
0.0
 10
58.018899
 20
1.527183
 30
0.0
 10
58.496737
 20
0.994312
 30
0.0
 10
58.903666
 20
0.575477
 30
0.0
 10
59.072999
 20
0.355873
 30
0.0
 10
59.018230
 20
0.302427
 30
0.0
 10
58.869799
 20
0.242631
 30
0.0
 10
58.381378
 20
0.122510
 30
0.0
 10
57.788182
 20
0.031229
 30
0.0
 10
57.271451
 20
0.003448
 30
0.0
 10
55.824709
 20
0.097904
 30
0.0
  0
ENDSEC
  0
SECTION
  2
OBJECTS
  0
DICTIONARY
  5
C
330
0
100
AcDbDictionary
  3
ACAD_GROUP
350
D
  3
ACAD_MLINESTYLE
350
17
  0
DICTIONARY
  5
D
330
C
100
AcDbDictionary
  0
DICTIONARY
  5
1A
330
C
100
AcDbDictionary
  0
DICTIONARY
  5
17
330
C
100
AcDbDictionary
  3
STANDARD
350
18
  0
DICTIONARY
  5
19
330
C
100
AcDbDictionary
  0
ENDSEC
  0
EOF
